<?xml version="1.0" standalone="no"?>
<!DOCTYPE svg PUBLIC "-//W3C//DTD SVG 20010904//EN"
 "http://www.w3.org/TR/2001/REC-SVG-20010904/DTD/svg10.dtd">
<svg version="1.0" xmlns="http://www.w3.org/2000/svg"
 width="114.000000pt" height="114.000000pt" viewBox="0 0 114.000000 114.000000"
 preserveAspectRatio="xMidYMid meet">
<metadata>
Created by potrace 1.14, written by Peter Selinger 2001-2017
</metadata>
<g transform="translate(0.000000,114.000000) scale(0.100000,-0.100000)"
fill="#000000" stroke="none">
<path d="M187 933 c-8 -14 -4 -364 5 -369 4 -3 8 0 8 5 0 6 4 11 9 11 5 0 51
24 103 53 51 30 119 64 150 78 54 23 56 25 51 54 -3 17 -10 35 -14 41 -5 6
-10 22 -11 36 -3 30 -26 56 -32 36 -19 -61 -60 -174 -65 -180 -3 -4 -6 49 -5
117 l0 125 -97 0 c-54 0 -100 -3 -102 -7z"/>
<path d="M480 923 c5 -10 34 -90 64 -178 51 -152 178 -491 196 -525 7 -12 27
-15 107 -15 l98 1 2 271 2 272 -27 -5 c-15 -3 -56 -12 -92 -20 -98 -23 -100
-24 -100 -13 0 18 -2 24 -10 34 -7 9 -29 71 -34 98 -4 16 -16 48 -29 75 -10
20 -17 22 -99 22 -81 0 -87 -1 -78 -17z"/>
<path d="M745 888 c3 -81 4 -85 14 -70 4 8 10 13 12 11 2 -1 29 4 59 11 30 7
64 14 75 14 33 2 45 16 45 52 l0 34 -103 0 -104 0 2 -52z"/>
<path d="M925 830 c-3 -5 -13 -7 -23 -6 -9 2 -20 -2 -24 -8 -5 -8 -8 -7 -8 2
0 9 -5 10 -18 3 -11 -6 -30 -12 -43 -15 -73 -13 -92 -33 -65 -68 12 -17 16
-17 70 2 31 10 56 17 56 15 0 -1 21 4 48 12 26 8 77 16 115 18 54 3 67 1 67
-11 0 -20 -41 -81 -89 -133 -46 -49 -55 -72 -14 -38 72 60 132 125 138 149 9
36 -1 63 -28 75 -26 12 -175 14 -182 3z"/>
<path d="M394 646 c-66 -34 -135 -71 -152 -84 -18 -13 -32 -20 -32 -15 0 4 -4
3 -8 -2 -4 -6 -33 -30 -65 -54 -82 -62 -137 -127 -137 -162 0 -25 21 -58 38
-60 4 0 16 -3 27 -5 37 -8 87 -6 97 4 7 7 1 9 -21 6 -17 -3 -31 -2 -31 3 0 4
-14 9 -32 10 -59 4 -55 40 11 100 20 18 42 33 49 33 6 0 12 4 12 8 0 5 10 14
23 20 12 7 54 30 92 52 39 22 119 64 178 92 95 46 107 55 102 73 -4 11 -7 25
-7 31 -2 19 -20 12 -144 -50z"/>
<path d="M485 584 c-10 -8 -22 -11 -26 -8 -5 3 -9 1 -9 -4 0 -5 -19 -17 -42
-28 -89 -39 -217 -116 -222 -132 -10 -35 -4 -201 8 -204 6 -2 51 -3 100 -3
l90 0 39 105 c22 58 43 114 48 125 9 22 59 156 59 160 0 7 -30 0 -45 -11z"/>
</g>
</svg>
